<svg width="54" height="27" viewBox="0 0 54 27" fill="none" xmlns="http://www.w3.org/2000/svg" class="jsx-4145296965"><title class="jsx-4145296965">Borgenfalk &amp; Skott</title><path d="M16.0119 18.987C16.0119 17.0533 15.4913 15.5842 14.4511 14.5801C13.4102 13.5766 11.7518 13.0745 9.47508 13.0745H6.39031V22.3655C6.39031 23.2469 6.46371 23.8956 6.61063 24.3119C6.75755 24.7285 7.02033 25.0158 7.40023 25.1749C7.7795 25.3343 8.3608 25.4135 9.14454 25.4135C13.7224 25.4135 16.0119 23.2717 16.0119 18.987ZM7.40023 1.24958C7.02033 1.42117 6.75755 1.72693 6.61063 2.16779C6.46371 2.60844 6.39031 3.26932 6.39031 4.15083V12.4501H8.8507C10.8579 12.4501 12.2597 11.9058 13.0556 10.8161C13.8507 9.72683 14.2491 8.27626 14.2491 6.4643C14.2491 4.62829 13.8452 3.2575 13.0372 2.35131C12.2293 1.44575 10.9194 0.992652 9.10783 0.992652C8.34866 0.992652 7.7795 1.0785 7.40023 1.24958ZM17.9582 14.8555C19.1087 16.0435 19.6841 17.4693 19.6841 19.134C19.6841 20.5295 19.329 21.7657 18.6191 22.8429C17.9087 23.9204 16.8932 24.759 15.5711 25.3585C14.2491 25.9588 12.6821 26.2582 10.8705 26.2582C10.2095 26.2582 9.64615 26.246 9.18134 26.2214C7.61428 26.1726 6.07179 26.1479 4.55409 26.1479C2.54648 26.1479 1.02867 26.1849 0.000549316 26.2582V25.5237C0.881852 25.4749 1.52453 25.3765 1.92848 25.2299C2.33242 25.083 2.60775 24.8018 2.75478 24.3853C2.90159 23.9693 2.975 23.2963 2.975 22.3655V4.15083C2.975 3.22069 2.90159 2.54758 2.75478 2.13098C2.60775 1.71512 2.33242 1.4333 1.92848 1.28639C1.52453 1.13936 0.881852 1.04201 0.000549316 0.992652V0.258163C1.02867 0.331466 2.5218 0.368274 4.48078 0.368274L8.44675 0.331466C8.91156 0.30752 9.43827 0.294972 10.0258 0.294972C12.5231 0.294972 14.4384 0.821683 15.7731 1.87385C17.1073 2.92675 17.7746 4.32242 17.7746 6.06056C17.7746 7.4806 17.3275 8.75372 16.4342 9.8795C15.5401 11.006 14.1264 11.8625 12.1927 12.4501V12.5237C14.8854 12.8911 16.807 13.6685 17.9582 14.8555Z" fill="black" class="jsx-4145296965"></path><path d="M42.6031 1.54749C43.5802 2.40746 44.0691 3.56713 44.0691 5.02711C44.0691 6.1576 43.7628 7.14138 43.1506 7.97699C42.5379 8.81301 41.7255 9.47827 40.7131 9.97267C39.8178 10.3968 38.0754 11.0095 35.485 11.8097C36.8036 12.3749 37.775 13.1819 38.3993 14.2294C39.0231 15.2776 39.3355 16.4728 39.3355 17.8151C39.3355 19.2757 38.8994 20.6534 38.0284 21.9484C37.1569 23.2439 35.9088 24.2859 34.2838 25.0748C32.6589 25.8633 30.7512 26.2582 28.5611 26.2582C26.5122 26.2582 24.6102 25.8988 22.856 25.1807C21.1013 24.4624 19.7059 23.438 18.67 22.1073C17.6333 20.777 17.1155 19.2282 17.1155 17.4618C17.1155 15.9076 17.4981 14.5951 18.2636 13.5232C19.0286 12.4516 19.9063 11.6394 20.8955 11.0855C21.8845 10.5326 22.803 10.1495 23.6509 9.93754C22.4967 9.44293 21.6135 8.78373 21.0014 7.95921C20.3887 7.13521 20.0829 6.27587 20.0829 5.38045C20.0829 4.6034 20.3125 3.87916 20.7718 3.20804C21.2311 2.53681 21.9138 1.99536 22.8207 1.58294C23.7269 1.17105 24.8044 0.964733 26.0529 0.964733C27.6306 0.964733 28.8553 1.31807 29.7269 2.02464C30.1508 2.37787 30.4742 2.77251 30.6983 3.20804C30.9218 3.64388 31.0338 4.06184 31.0338 4.46202C31.0338 5.02711 30.8335 5.48083 30.4334 5.82214C30.0326 6.16377 29.5734 6.33443 29.0556 6.33443C28.5611 6.33443 28.1311 6.17548 27.7662 5.85728C27.4009 5.53939 27.2188 5.11003 27.2188 4.56795C27.2188 4.05013 27.3954 3.60875 27.7485 3.24317C28.1018 2.87844 28.549 2.67233 29.0911 2.62497C28.9729 2.31942 28.6726 2.05423 28.1902 1.83025C27.7073 1.60668 27.1127 1.49458 26.4062 1.49458C25.1813 1.49458 24.1923 1.86569 23.4389 2.6074C22.6849 3.3491 22.3085 4.37973 22.3085 5.69834C22.3085 7.27659 22.909 8.61893 24.11 9.72558C24.9341 9.5842 25.6643 9.51372 26.3002 9.51372C26.7243 9.51372 27.0651 9.5842 27.3248 9.72558C27.5836 9.86675 27.7133 10.0673 27.7133 10.326C27.7133 10.5379 27.625 10.703 27.4484 10.8206C27.2718 10.9387 27.0299 10.9971 26.7243 10.9971C26.3472 10.9971 25.9587 10.9265 25.5584 10.7853C25.1576 10.6442 24.6868 10.4557 24.1454 10.2201C21.0837 11.1385 19.553 13.0698 19.553 16.0135C19.553 17.5914 19.9648 18.9579 20.7894 20.1114C21.6135 21.2655 22.7439 22.1425 24.1808 22.7431C25.617 23.3437 27.2303 23.644 29.0203 23.644C30.6923 23.644 32.2404 23.3791 33.6656 22.8489C35.0903 22.3192 36.2207 21.5658 37.057 20.5881C37.8926 19.6112 38.3111 18.4748 38.3111 17.1793C38.3111 16.2378 38.0638 15.2838 37.5692 14.3179C37.0746 13.3525 36.1324 12.5991 34.7431 12.057C32.9061 12.6222 31.5516 13.0698 30.6807 13.3994C29.6915 13.7764 28.9259 14.2063 28.3844 14.6887C27.8425 15.1717 27.5721 15.7662 27.5721 16.4728C27.5721 17.3207 27.9192 18.0039 28.6141 18.5217C29.3085 19.0401 30.0447 19.2988 30.822 19.2988C31.2222 19.2988 31.6576 19.2282 32.129 19.0869C32.5998 18.9455 32.8709 18.7574 32.9415 18.5217C32.4938 18.4277 32.1052 18.239 31.7757 17.9565C31.4457 17.6737 31.2812 17.2622 31.2812 16.7201C31.2812 16.1549 31.4634 15.7077 31.8287 15.3777C32.1935 15.0482 32.6589 14.8831 33.2242 14.8831C33.7894 14.8831 34.2424 15.0598 34.5841 15.4128C34.9253 15.7662 35.0964 16.2254 35.0964 16.7906C35.0964 17.7329 34.6603 18.4748 33.7894 19.0164C32.9178 19.5581 31.9524 19.8287 30.8927 19.8287C29.7385 19.8287 28.7199 19.4814 27.837 18.7865C26.9539 18.0923 26.5122 17.0617 26.5122 15.6956C26.5122 14.4946 26.9184 13.4761 27.7309 12.6398C28.5434 11.8041 29.7622 11.1031 31.3871 10.5379L33.8953 9.79616C35.3083 9.39608 36.4857 9.04275 37.428 8.73636C38.3696 8.43071 39.2295 8.10059 40.0066 7.74725C41.137 7.22943 41.9259 6.69968 42.3735 6.1576C42.8206 5.61615 43.0447 5.01571 43.0447 4.35599C43.0447 3.36698 42.6384 2.52521 41.8259 1.83025C41.0134 1.13602 40.0536 0.788221 38.9469 0.788221C38.358 0.788221 38.0047 0.89415 37.887 1.10611C38.1929 1.24749 38.4348 1.47701 38.6114 1.7948C38.7879 2.11269 38.8763 2.42534 38.8763 2.73089C38.8763 3.22561 38.6819 3.63802 38.2933 3.96762C37.9047 4.29743 37.4395 4.46202 36.8979 4.46202C36.4035 4.46202 35.9674 4.30914 35.5909 4.00265C35.214 3.6969 35.0257 3.26106 35.0257 2.69576C35.0257 1.84781 35.4199 1.2296 36.2091 0.841237C36.9979 0.452452 37.8987 0.258163 38.9115 0.258163C40.3952 0.258163 41.6256 0.688149 42.6031 1.54749Z" fill="black" class="jsx-4145296965"></path><path d="M47.6117 0.595294C48.2147 0.820116 48.8353 1.14522 49.4739 1.57081C49.9937 1.90198 50.3961 2.0672 50.6799 2.0672C50.8927 2.0672 51.0578 1.94318 51.1765 1.69483C51.2946 1.44648 51.3892 1.0509 51.4602 0.506513H52.276C52.1575 1.87824 52.0987 4.29022 52.0987 7.74244H51.2827C51.1411 5.82706 50.5911 4.21326 49.6335 2.90092C48.6759 1.58838 47.2863 0.932108 45.4658 0.932108C44.1888 0.932108 43.1478 1.31682 42.3444 2.08508C41.5401 2.85366 41.1385 3.84089 41.1385 5.04677C41.1385 5.94575 41.3451 6.72614 41.7591 7.38795C42.1725 8.05019 42.699 8.61768 43.3375 9.09054C43.9759 9.56371 44.8861 10.1669 46.0688 10.8995L47.0974 11.5379C48.5872 12.46 49.7632 13.2703 50.6267 13.9675C51.4896 14.6652 52.1813 15.4635 52.7016 16.3619C53.2214 17.2608 53.4821 18.3128 53.4821 19.5187C53.4821 21.6706 52.7726 23.3318 51.3537 24.5024C49.9351 25.6727 48.1376 26.2582 45.9624 26.2582C44.8273 26.2582 43.899 26.1395 43.178 25.9035C42.4563 25.6671 41.7647 25.3479 41.1028 24.9456C40.5825 24.6148 40.1807 24.4492 39.897 24.4492C39.684 24.4492 39.5185 24.5733 39.4003 24.8216C39.2816 25.07 39.1874 25.4661 39.1165 26.0098H38.3008C38.3949 24.7096 38.4426 21.872 38.4426 17.497H39.2584C39.4235 19.8856 40.015 21.8244 41.032 23.3141C42.0484 24.8036 43.6091 25.5487 45.7141 25.5487C46.9909 25.5487 48.0785 25.1528 48.9773 24.3605C49.8758 23.5685 50.3251 22.392 50.3251 20.831C50.3251 19.507 49.8818 18.3837 48.9951 17.4613C48.1083 16.5392 46.7072 15.4991 44.7917 14.3399C43.3962 13.4887 42.2673 12.7322 41.4044 12.0698C40.5408 11.4083 39.8375 10.61 39.2939 9.6757C38.7497 8.7417 38.4781 7.64833 38.4781 6.39455C38.4781 4.40838 39.1165 2.88921 40.3935 1.83673C41.6704 0.784875 43.2543 0.258163 45.1465 0.258163C46.1867 0.258163 47.0086 0.370785 47.6117 0.595294Z" fill="black" class="jsx-4145296965"></path></svg>
