<svg xmlns="http://www.w3.org/2000/svg" xmlns:svg="http://www.w3.org/2000/svg" id="svg3336" width="756.563" height="657.188" version="1.1" viewBox="0 0 756.563 657.188"><metadata id="metadata3342"/><g id="layer2" style="display:inline;opacity:1"><path style="fill:#000;fill-rule:evenodd;stroke:#000;stroke-width:1px;stroke-linecap:butt;stroke-linejoin:miter;stroke-opacity:1" id="path3361-9" d="M 6.9034969,106.75566 C 23.115971,97.979541 163.56507,31.212745 277.37245,11.11481 c 113.80738,-20.0979361 187.11168,4.193228 228.67832,19.86846 59.83825,18.128812 140.14372,83.11717 179.5803,150.5418 35.59005,60.84823 52.60192,138.73731 39.73692,208.04568 -16.66354,89.77247 -40.3919,118.357 -119.97493,200.02189 58.39818,-2.503 101.5333,-44.43559 142.90007,-90.93641 -6.72908,17.25421 -49.23677,87.5901 -154.36264,130.67333 -83.02547,27.43905 -114.82923,17.37105 -155.31786,13.56404 -42.22953,-7.62791 -69.36349,-21.23247 -108.32131,-49.4801 -47.6973,-35.92341 -62.73546,-68.55394 -71.83212,-84.44095 -18.05029,-38.62308 -23.1436,-78.9938 -22.92515,-117.10929 6.55838,-34.93465 6.49611,-52.62962 32.0952,-102.9721 l 15.85656,-27.70122 c -25.425,4.49961 -35.53397,29.4206 -53.30096,44.1309 16.54181,-26.46874 32.91063,-52.68323 65.52771,-74.88881 74.26423,-47.13788 127.15393,-33.99302 130.07703,-34.1599 11.25317,2.28798 26.90425,6.12781 56.95395,23.07941 -47.73955,-2.37853 -94.43481,-5.48419 -132.20168,17.00283 -35.34818,17.42414 -55.8282,43.12767 -74.69776,69.5396 -16.3491,25.74582 -23.306,52.20966 -27.51018,79.47384 -7.36862,46.26403 6.01835,85.72764 22.16098,123.22265 14.72674,31.30148 39.72099,59.44373 74.31567,84.632 28.82876,22.59547 62.25668,32.31329 96.09458,40.88317 84.02031,14.07079 128.08125,-4.73638 172.8938,-22.92514 -64.42631,8.13998 -117.41502,2.98349 -138.124,2.86565 58.06727,-14.64303 115.45181,-29.86922 149.58657,-64.95459 39.70259,-34.27677 76.35049,-75.68115 93.41997,-162.76853 8.69616,-57.48632 4.28272,-141.61853 -44.70404,-211.48446 C 633.13289,115.72309 580.14154,65.139289 496.68966,35.950386 415.01177,5.4806959 340.19243,7.7796071 267.62925,20.857999 129.17321,51.370043 113.42384,71.783102 40.633571,102.40616 c -13.028762,0.29703 -26.01688,4.45286 -33.7300741,4.3495 z"/></g></svg>