<svg xmlns="http://www.w3.org/2000/svg" xmlns:xlink="http://www.w3.org/1999/xlink" viewBox="0 0 184 105"><linearGradient id="a" x1="146.37" x2="28.37" y1="394.08" y2="295.41" gradientTransform="translate(0 -312)" gradientUnits="userSpaceOnUse"><stop offset="0" stop-color="#960082"/><stop offset="1" stop-color="#fc3859"/></linearGradient><linearGradient id="b" x1="157.01" x2="39.01" y1="381.36" y2="282.69" xlink:href="#a"/><linearGradient id="c" x1="117.93" x2="-.07" y1="428.09" y2="329.42" xlink:href="#a"/><path fill="url(#a)" d="m158 42a9 9 0 0 0 -9 9 8.75 8.75 0 0 0 2.7 6.4l-16 35.6a10 10 0 0 1 -9.1 5.9h-10a9.87 9.87 0 0 1 -9.2-6.2l-3.7-8.9a8.94 8.94 0 1 0 -5.7 2.1h.1l3.8 9.2a15.92 15.92 0 0 0 14.8 9.8h10a16 16 0 0 0 14.6-9.5l15.9-35.4h.8a9 9 0 0 0 0-18zm-60 39a4 4 0 1 1 4-4 4 4 0 0 1 -4 4zm60-26a4 4 0 1 1 4-4 4 4 0 0 1 -4 4z"/><path fill="url(#b)" d="m174.9 20.2 9.1-20.2h-23a15.82 15.82 0 0 0 -14.6 9.6l-24.1 54.7-28.3-64.3h-94v30h20.5a9 9 0 1 0 8.5-12 9.1 9.1 0 0 0 -8.5 6h-14.5v-18h84.1l26.7 60.7 5.5 12.5 5.5-12.5 24.1-54.7a10.11 10.11 0 0 1 9.2-6h13.7l-5.4 12h-.4a9 9 0 1 0 9 9 9.09 9.09 0 0 0 -3.1-6.8zm-145.9 2.8a4 4 0 1 1 -4 4 4 4 0 0 1 4-4zm140 8a4 4 0 1 1 4-4 4 4 0 0 1 -4 4z"/><path fill="url(#c)" d="m76 18a9.1 9.1 0 0 0 -8.5 6h-17.5v75h-18v-31.5a9 9 0 1 0 -12-8.5 9.1 9.1 0 0 0 6 8.5v37.5h30v-75h11.5a9 9 0 1 0 8.5-12zm-47 45a4 4 0 1 1 4-4 4 4 0 0 1 -4 4zm47-32a4 4 0 1 1 4-4 4 4 0 0 1 -4 4z"/></svg>